<?xml version="1.0" standalone="no"?>
<!DOCTYPE svg PUBLIC "-//W3C//DTD SVG 20010904//EN"
 "http://www.w3.org/TR/2001/REC-SVG-20010904/DTD/svg10.dtd">
<svg version="1.0" xmlns="http://www.w3.org/2000/svg"
 width="781.000000pt" height="781.000000pt" viewBox="0 0 781.000000 781.000000"
 preserveAspectRatio="xMidYMid meet">

<g transform="translate(0.000000,781.000000) scale(0.100000,-0.100000)"
fill="#000000" stroke="none">
<path d="M7515 4058 c-24 -19 -27 -26 -22 -62 6 -41 23 -61 91 -111 20 -15 28
-29 29 -55 2 -31 -1 -35 -25 -38 -21 -2 -30 3 -41 24 -9 18 -16 23 -21 15 -14
-21 4 -61 30 -71 36 -14 48 -13 72 10 42 40 21 121 -42 158 -46 27 -73 68 -59
91 16 25 45 26 64 0 21 -28 34 -20 25 15 -5 19 -46 46 -71 46 -1 0 -15 -10
-30 -22z"/>
<path d="M7365 4053 c-16 -3 -34 -8 -38 -12 -5 -5 2 -79 14 -165 l22 -157 46
6 c63 9 71 12 71 31 0 13 -7 15 -39 9 -45 -7 -49 -3 -57 58 l-7 46 37 6 c50
10 48 35 -3 35 -39 0 -40 1 -46 44 -8 50 -2 66 25 66 29 0 50 11 50 26 0 14
-15 15 -75 7z"/>
<path d="M7230 4013 c0 -10 9 -76 20 -148 11 -71 20 -136 20 -142 0 -7 7 -13
15 -13 19 0 19 16 -5 175 -11 72 -20 133 -20 138 0 16 -30 6 -30 -10z"/>
<path d="M7153 3908 c6 -148 -9 -192 -33 -94 -21 82 -52 182 -60 189 -25 26
-18 -32 21 -164 43 -145 45 -149 72 -149 l27 0 0 165 c0 145 -2 165 -16 165
-14 0 -16 -14 -11 -112z"/>
<path d="M6894 3967 l-28 -24 13 -109 c7 -60 19 -121 27 -135 18 -36 60 -46
93 -21 34 25 36 39 21 152 -13 100 -31 150 -54 150 -8 0 -21 3 -29 6 -8 3 -27
-6 -43 -19z m70 -26 c10 -16 36 -210 30 -225 -7 -17 -49 -22 -58 -7 -3 5 -13
57 -22 116 -13 89 -13 109 -2 116 17 11 45 11 52 0z"/>
<path d="M6763 3963 c-9 -3 -13 -37 -13 -118 0 -63 -4 -116 -10 -120 -5 -3
-21 34 -35 82 -44 148 -49 156 -83 134 -18 -11 25 -321 44 -321 9 0 12 9 9 28
-26 147 -32 233 -15 216 5 -5 24 -59 42 -118 45 -150 58 -149 58 3 0 70 4 122
10 126 14 8 17 -3 34 -124 9 -57 17 -106 20 -108 20 -20 20 27 0 164 -13 87
-24 159 -24 161 0 3 -24 1 -37 -5z"/>
<path d="M6400 3913 c-14 -3 -28 -8 -32 -11 -4 -4 2 -68 12 -142 27 -184 26
-181 53 -176 12 3 39 8 59 11 28 4 36 10 31 21 -4 11 -17 14 -46 12 l-41 -3
-9 49 c-9 54 -1 66 41 66 15 0 22 6 22 19 0 15 -7 18 -37 17 -35 -1 -37 1 -45
39 -11 52 -6 61 36 69 22 4 36 13 36 21 0 15 -26 17 -80 8z"/>
<path d="M6285 3895 c-5 -2 -31 -6 -57 -10 -32 -4 -48 -11 -48 -21 0 -8 10
-14 24 -14 14 0 27 -4 30 -9 3 -5 15 -68 25 -141 11 -73 21 -134 23 -135 2 -2
9 0 16 4 10 6 10 29 -3 117 -8 60 -18 121 -21 136 -5 23 -1 30 20 38 41 15 32
49 -9 35z"/>
<path d="M6103 3844 c3 -16 13 -89 23 -161 15 -115 20 -133 36 -133 15 0 17 6
12 38 -3 20 -13 91 -22 157 -15 102 -20 120 -36 123 -16 3 -18 -1 -13 -24z"/>
<path d="M5927 3843 c-14 -4 -17 -11 -13 -31 3 -15 12 -76 21 -137 21 -147 23
-155 41 -155 13 0 14 9 8 56 -11 88 -10 89 12 92 33 5 51 -21 59 -83 9 -73 31
-69 29 5 -1 37 -9 61 -24 82 -16 22 -19 33 -11 41 23 23 8 109 -23 129 -12 8
-70 9 -99 1z m87 -45 c23 -32 20 -75 -5 -88 -11 -7 -26 -9 -33 -7 -19 7 -30
98 -14 109 21 13 36 9 52 -14z"/>
<path d="M5750 3800 c-24 -24 -24 -32 -5 -162 17 -112 32 -138 77 -138 42 0
68 32 68 83 -1 70 -28 198 -46 218 -22 25 -69 24 -94 -1z m73 -24 c7 -8 19
-58 26 -116 12 -92 12 -103 -3 -118 -13 -13 -20 -14 -34 -6 -23 15 -58 219
-41 240 15 18 34 18 52 0z"/>
<path d="M5657 3804 c-4 -4 -7 -66 -7 -138 0 -89 -3 -127 -10 -120 -6 6 -24
60 -41 120 -32 114 -43 135 -58 119 -5 -6 1 -41 14 -85 13 -41 34 -110 47
-153 21 -72 25 -78 48 -75 l25 3 3 159 c2 146 -3 188 -21 170z"/>
<path d="M5410 3753 c0 -10 -3 -84 -7 -165 -5 -131 -4 -148 10 -148 10 0 17
11 19 33 3 29 6 32 40 35 33 3 38 0 44 -22 7 -28 34 -36 34 -10 0 9 -13 55
-29 103 -15 47 -35 109 -43 136 -13 42 -20 51 -42 53 -20 3 -26 -1 -26 -15z
m50 -70 c6 -21 16 -55 22 -75 14 -47 5 -68 -27 -68 -25 0 -25 0 -25 90 0 95
11 115 30 53z"/>
<path d="M5277 3750 c-27 -5 -50 -10 -52 -12 -2 -2 39 -298 44 -315 1 -2 8 -3
17 -3 13 0 14 9 8 56 -11 91 -11 89 19 92 19 2 27 9 27 23 0 15 -6 19 -32 17
-31 -3 -32 -2 -40 47 -8 55 -1 65 45 65 20 0 27 5 27 20 0 11 -3 19 -7 19 -5
-1 -30 -5 -56 -9z"/>
<path d="M4965 3701 c-3 -6 4 -80 16 -166 20 -138 24 -155 41 -155 14 0 18 5
14 18 -3 9 -8 43 -12 75 l-6 57 30 0 c27 0 32 -5 41 -37 6 -21 12 -49 13 -63
2 -15 10 -26 21 -28 17 -3 18 1 12 45 -4 26 -15 62 -25 79 -15 26 -16 38 -7
71 9 34 7 45 -9 74 -18 31 -25 34 -71 37 -28 2 -54 -2 -58 -7z m89 -34 c11 -8
18 -27 19 -50 1 -42 0 -44 -33 -49 -22 -3 -26 2 -34 39 -14 66 6 91 48 60z"/>
<path d="M4874 3668 c13 -59 37 -249 32 -257 -8 -12 -42 -20 -54 -12 -6 3 -18
58 -27 121 -21 148 -24 160 -41 160 -18 0 -17 -9 6 -160 15 -102 23 -128 40
-142 31 -25 62 -22 90 7 l23 25 -19 137 c-16 115 -22 138 -37 141 -14 3 -17
-1 -13 -20z"/>
<path d="M4612 3640 c-26 -25 -27 -49 -7 -179 15 -99 24 -116 66 -126 19 -5
33 0 55 18 l28 24 -13 109 c-15 121 -29 158 -63 168 -35 9 -43 8 -66 -14z m77
-42 c4 -13 13 -63 20 -111 9 -68 9 -92 0 -103 -13 -16 -45 -19 -54 -4 -10 16
-37 211 -31 226 9 23 55 17 65 -8z"/>
<path d="M4515 3630 c-3 -5 -9 -32 -12 -60 -9 -78 -22 -75 -58 10 -10 25 -20
46 -21 48 0 1 -8 0 -17 -4 -14 -5 -10 -18 25 -87 28 -54 45 -106 53 -152 8
-55 15 -71 29 -73 13 -3 17 0 13 10 -16 43 -18 148 -3 218 9 41 16 81 16 88 0
14 -16 16 -25 2z"/>
<path d="M4178 3592 c-21 -2 -38 -9 -38 -15 1 -7 11 -79 23 -162 18 -114 26
-150 37 -150 8 0 14 5 14 10 -1 6 -5 38 -9 73 l-7 63 33 -3 c35 -3 33 2 55
-105 7 -35 37 -30 30 5 -2 15 -7 44 -11 64 -3 21 -12 44 -20 52 -12 12 -13 20
-4 39 7 15 8 39 2 67 -7 36 -14 46 -38 55 -17 6 -47 9 -67 7z m59 -44 c15 -19
24 -64 17 -82 -10 -26 -60 -21 -68 7 -8 30 -8 72 1 80 11 11 40 8 50 -5z"/>
<path d="M3987 3550 c-22 -17 -27 -30 -27 -63 0 -62 28 -209 42 -223 27 -26
64 -27 93 -1 l29 24 -13 104 c-15 115 -32 169 -55 169 -8 0 -21 2 -28 5 -8 3
-26 -4 -41 -15z m68 -32 c3 -7 11 -58 19 -113 16 -105 12 -125 -25 -125 -26 0
-35 23 -49 134 -11 83 -11 99 1 107 20 13 49 11 54 -3z"/>
<path d="M3835 3543 c-16 -3 -33 -8 -37 -12 -4 -4 2 -77 14 -164 20 -139 24
-157 41 -157 15 0 18 5 13 28 -3 15 -8 48 -12 73 -6 46 -5 47 25 54 43 9 41
35 -3 35 -32 0 -34 2 -40 45 -8 51 -3 65 24 65 29 0 50 11 50 26 0 14 -15 15
-75 7z"/>
<path d="M3608 3509 c-26 -4 -51 -10 -56 -13 -9 -5 29 -301 41 -312 3 -4 31
-3 62 1 42 5 55 10 55 23 0 14 -8 17 -41 14 -50 -5 -56 1 -61 58 -3 43 -2 45
27 50 18 3 31 12 33 23 3 15 -2 18 -34 15 l-39 -3 -6 45 c-8 52 6 70 53 70 18
0 28 5 28 14 0 21 -9 23 -62 15z"/>
<path d="M3390 3460 c-24 -24 -24 -32 -5 -162 17 -112 32 -138 77 -138 50 0
82 53 62 104 -10 27 -23 18 -26 -20 -2 -22 -10 -42 -20 -48 -31 -19 -46 12
-63 123 -14 92 -14 107 -1 119 19 20 44 9 59 -26 15 -36 36 -31 29 6 -10 60
-71 83 -112 42z"/>
<path d="M3228 3449 c-16 -9 -18 -28 -18 -169 0 -136 2 -160 15 -160 10 0 15
11 15 35 0 21 5 35 13 35 6 0 22 3 35 6 18 5 24 1 33 -25 6 -17 17 -31 25 -31
19 0 19 -1 -20 125 -64 206 -63 205 -98 184z m52 -129 c13 -44 21 -82 19 -84
-2 -2 -16 -6 -30 -9 l-26 -7 -5 78 c-9 129 9 139 42 22z"/>
<path d="M3023 3422 c-9 -6 -6 -45 10 -162 21 -147 24 -155 45 -154 87 3 92 4
92 24 0 18 -5 20 -39 14 -21 -3 -41 -2 -44 3 -3 4 -13 62 -22 128 -18 135 -25
158 -42 147z"/>
<path d="M2870 3403 c-14 -3 -28 -8 -32 -11 -4 -4 3 -77 15 -162 17 -120 26
-155 37 -155 16 0 17 13 7 92 l-8 52 41 11 c45 12 57 36 47 97 -10 57 -50 86
-107 76z m72 -68 c14 -49 2 -75 -32 -75 -22 0 -30 5 -30 18 0 9 -3 34 -7 55
l-6 38 33 -3 c28 -2 35 -8 42 -33z"/>
<path d="M2607 3356 c-3 -7 -6 -84 -6 -171 -1 -123 1 -156 11 -153 7 3 14 18
16 35 2 22 10 33 25 37 43 11 54 7 61 -24 3 -18 12 -30 21 -30 21 0 19 11 -20
135 -19 61 -40 127 -45 148 -9 29 -16 37 -34 37 -13 0 -26 -6 -29 -14z m54
-88 c6 -24 15 -53 20 -66 17 -45 12 -62 -21 -62 l-30 0 0 85 c0 93 13 110 31
43z"/>
</g>
</svg>
